<svg width="128" height="128" viewBox="0 0 128 128" fill="none" xmlns="http://www.w3.org/2000/svg">
  <!-- Background -->
  <rect width="128" height="128" rx="16" fill="#1A1A2E"/>

  <!-- Sync arrows (larger) -->
  <g transform="translate(24, 24) scale(3.3)">
    <path d="M12 4V1L8 5l4 4V6c3.31 0 6 2.69 6 6 0 1.01-.25 1.97-.7 2.8l1.46 1.46C19.54 15.03 20 13.57 20 12c0-4.42-3.58-8-8-8z" fill="#00D9FF"/>
    <path d="M12 18c-3.31 0-6-2.69-6-6 0-1.01.25-1.97.7-2.8L5.24 7.74C4.46 8.97 4 10.43 4 12c0 4.42 3.58 8 8 8v3l4-4-4-4v3z" fill="#00D9FF"/>
  </g>

  <!-- Roblox-style corner accent -->
  <rect x="8" y="8" width="16" height="16" rx="4" fill="#FF6B6B"/>
</svg>
