<svg xmlns="http://www.w3.org/2000/svg" viewBox="0 0 1172.94 1145.62" width="24" height="24">
  <path fill="currentColor" d="M399.54,1020.73l495.54,123.52A45.9,45.9,0,0,0,951.32,1108L1027,697.59a45.9,45.9,0,0,1,55.44-36.41l34.27,7.89a45.9,45.9,0,0,0,55.88-50.17l-41.45-347.37c-4-33.19-40.93-51.16-69.47-33.77L665.25,479.27c-35,21.29-26.68,74.22,13.1,83.83,35.43,8.56,47.23,53,20.71,78L379.15,942.79C352.74,967.69,364.32,1012,399.54,1020.73Z"/>
  <path fill="currentColor" d="M768.49,119.32,321.67,1.53a45.9,45.9,0,0,0-55.89,31.93L147.05,454.75A45.9,45.9,0,0,1,92,486.89l-35.12-8.6A45.91,45.91,0,0,0,.26,527.69l35.92,340.4c3.53,33.51,40.76,51.92,69.53,34.39l395.51-241c34.95-21.29,26.68-74.21-13.1-83.82-35.43-8.56-47.24-53-20.72-78L788.28,197.11C814.49,172.39,803.32,128.5,768.49,119.32Z"/>
</svg>
